<svg height="512pt" viewBox="0 0 512 512" width="512pt" xmlns="http://www.w3.org/2000/svg"><path d="m512 27.507812v124.730469c0 15.199219-12.308594 27.507813-27.488281 27.507813h-457.023438c-15.179687 0-27.488281-12.308594-27.488281-27.507813v-124.730469c0-15.191406 12.308594-27.507812 27.488281-27.507812h457.023438c15.179687 0 27.488281 12.316406 27.488281 27.507812zm0 0" fill="#2999ff"/><path d="m512 207.363281v124.839844c0 15.160156-12.308594 27.457031-27.488281 27.457031h-457.023438c-15.179687 0-27.488281-12.296875-27.488281-27.457031v-124.839844c0-15.160156 12.308594-27.457031 27.488281-27.457031h457.023438c15.179687 0 27.488281 12.296875 27.488281 27.457031zm0 0" fill="#0085a9"/><path d="m512 207.363281v124.839844c0 15.160156-12.308594 27.457031-27.488281 27.457031h-229.421875v-179.753906h229.421875c15.179687 0 27.488281 12.296875 27.488281 27.457031zm0 0" fill="#00608d"/><path d="m512 27.507812v124.730469c0 15.199219-12.308594 27.507813-27.488281 27.507813h-229.421875v-179.746094h229.421875c15.179687 0 27.488281 12.316406 27.488281 27.507812zm0 0" fill="#3e7eff"/><path d="m217.039062 254.773438h-138.191406c-8.28125 0-15 6.71875-15 15.007812s6.71875 15.011719 15 15.011719h138.191406c8.285157 0 15-6.722657 15-15.011719s-6.714843-15.007812-15-15.007812zm0 0" fill="#fff"/><path d="m434.285156 254.773438h-54.769531c-8.285156 0-15 6.71875-15 15.007812s6.714844 15.011719 15 15.011719h54.769531c8.28125 0 15-6.722657 15-15.011719s-6.71875-15.007812-15-15.007812zm0 0" fill="#fbb13e"/><path d="m337.308594 93.773438c0 8.285156-6.707032 15.011718-15 15.011718h-244.027344c-8.28125 0-15-6.726562-15-15.011718 0-8.292969 6.71875-15.007813 15-15.007813h244.027344c8.292968 0 15 6.714844 15 15.007813zm0 0" fill="#fff"/><path d="m378.949219 108.78125h54.769531c8.285156 0 15-6.71875 15-15.007812 0-8.289063-6.714844-15.007813-15-15.007813h-54.769531c-8.285157 0-15 6.71875-15 15.007813 0 8.289062 6.714843 15.007812 15 15.007812zm0 0" fill="#fbb13e"/><path d="m409.75 493.359375c-6.730469 11.667969-18.800781 18.640625-32.28125 18.640625h-244.75c-13.480469 0-25.546875-6.972656-32.277344-18.640625-6.722656-11.65625-6.710937-25.566406.027344-37.210937l122.371094-211.664063c6.738281-11.648437 18.789062-18.601563 32.25-18.601563 13.460937 0 25.519531 6.953126 32.25 18.601563h.011718l122.367188 211.664063c6.730469 11.644531 6.742188 25.554687.03125 37.210937zm0 0" fill="#ffc837"/><path d="m409.71875 456.148438c6.730469 11.644531 6.742188 25.554687.03125 37.210937-6.730469 11.667969-18.800781 18.640625-32.28125 18.640625h-122.378906v-286.117188c13.460937 0 25.519531 6.953126 32.25 18.601563h.011718zm0 0" fill="#fbb13e"/><path d="m270.089844 336.347656v48.398438c0 8.285156-6.710938 15.007812-15 15.007812-8.28125 0-15-6.722656-15-15.007812v-48.398438c0-8.285156 6.71875-15.007812 15-15.007812 8.289062 0 15 6.722656 15 15.007812zm0 0" fill="#fff"/><path d="m270.089844 425.871094v9.984375c0 8.285156-6.710938 15.007812-15 15.007812-8.28125 0-15-6.722656-15-15.007812v-9.984375c0-8.296875 6.71875-15.011719 15-15.011719 8.289062 0 15 6.714844 15 15.011719zm0 0" fill="#fff"/><g fill="#fff5ea"><path d="m270.089844 336.347656v48.398438c0 8.285156-6.710938 15.007812-15 15.007812v-78.414062c8.289062 0 15 6.722656 15 15.007812zm0 0"/><path d="m270.089844 425.871094v9.984375c0 8.285156-6.710938 15.007812-15 15.007812v-40c8.289062-.003906 15 6.710938 15 15.007813zm0 0"/><path d="m337.308594 93.773438c0 8.285156-6.707032 15.011718-15 15.011718h-67.21875v-30.019531h67.21875c8.292968 0 15 6.714844 15 15.007813zm0 0"/></g></svg>